<?xml version="1.0" standalone="no"?><!DOCTYPE svg PUBLIC "-//W3C//DTD SVG 1.1//EN" "http://www.w3.org/Graphics/SVG/1.1/DTD/svg11.dtd"><svg t="1777893239328" class="icon" viewBox="0 0 1024 1024" version="1.1" xmlns="http://www.w3.org/2000/svg" p-id="20961" xmlns:xlink="http://www.w3.org/1999/xlink" width="256" height="256"><path d="M221.7472 395.5712H78.0288a26.7264 26.7264 0 0 1-26.368-27.136c0-14.8992 11.776-27.0336 26.368-27.0336h170.1376c14.592 0 26.368 12.1344 26.368 27.0848v491.9296l84.3264-67.7376a25.9584 25.9584 0 0 1 37.0688 4.608 27.5456 27.5456 0 0 1-4.4544 37.9904l-126.976 102.0928a25.9584 25.9584 0 0 1-37.0176-4.5568 27.5456 27.5456 0 0 1-5.632-16.7936V395.5712H221.696z m237.4656-274.944a26.7264 26.7264 0 0 1-26.4192-27.136c0-14.8992 11.8272-27.0336 26.4192-27.0336h422.4c43.7248 0 79.2064 36.352 79.2064 81.2544v758.1184c0 44.9024-35.4816 81.2544-79.2064 81.2544a26.7264 26.7264 0 0 1-26.4192-27.0848c0-14.9504 11.8272-27.0848 26.4192-27.0848a26.7264 26.7264 0 0 0 26.368-27.0848V147.712a26.7264 26.7264 0 0 0-26.368-27.136h-422.4z m32.5632 240.3328a26.7264 26.7264 0 0 1-26.4192-27.0848c0-14.9504 11.8272-27.0848 26.4192-27.0848h316.8256c14.5408 0 26.368 12.1344 26.368 27.0848 0 14.9504-11.776 27.0848-26.368 27.0848H491.776zM512 472.576h263.9872c29.184 0 52.8384 24.2688 52.8384 54.1696v162.5088c0 29.9008-23.6544 54.1184-52.8384 54.1184H512c-29.184 0-52.7872-24.2176-52.7872-54.1184v-162.5088c0-29.9008 23.6032-54.1184 52.7872-54.1184z m0 54.1696v162.5088h263.9872v-162.5088H512zM148.992 79.5648a27.136 27.136 0 0 1-20.1728-32.256 26.4192 26.4192 0 0 1 31.4368-20.6336c33.4336 7.4752 65.9968 27.0848 97.7408 58.2656 30.976 30.3104 52.8896 60.8768 65.536 91.9552 5.632 13.824-0.7168 29.696-14.1312 35.4304a26.1632 26.1632 0 0 1-34.56-14.5408c-9.5744-23.552-27.2384-48.1792-53.3504-73.728-25.1904-24.7296-49.408-39.3216-72.5504-44.4928z" fill="#515151" p-id="20962"></path></svg>