<?xml version="1.0" standalone="no"?><!DOCTYPE svg PUBLIC "-//W3C//DTD SVG 1.1//EN" "http://www.w3.org/Graphics/SVG/1.1/DTD/svg11.dtd"><svg t="1777887695543" class="icon" viewBox="0 0 1024 1024" version="1.1" xmlns="http://www.w3.org/2000/svg" p-id="3511" xmlns:xlink="http://www.w3.org/1999/xlink" width="256" height="256"><path d="M859.19809 175.323452L438.925202 512l420.272888 336.676548V175.323452z m21.311883 836.091401L312.513097 556.415756c-28.415844-22.771075-28.415844-66.060437 0-88.831512L880.509973 12.572347C917.706569-17.225889 972.797466 9.295565 972.797466 56.988103v910.023794c0 47.692538-55.090897 74.213992-92.287493 44.415756z m-702.908134-101.273043V113.85819a56.831687 56.831687 0 0 0-56.806087-56.870087A56.831687 56.831687 0 0 0 64.002464 113.85819v796.28362a56.831687 56.831687 0 0 0 56.806088 56.870087 56.831687 56.831687 0 0 0 56.793287-56.870087z" fill="#515151" p-id="3512"></path></svg>