<?xml version="1.0" standalone="no"?><!DOCTYPE svg PUBLIC "-//W3C//DTD SVG 1.1//EN" "http://www.w3.org/Graphics/SVG/1.1/DTD/svg11.dtd"><svg t="1777894037137" class="icon" viewBox="0 0 1024 1024" version="1.1" xmlns="http://www.w3.org/2000/svg" p-id="22607" xmlns:xlink="http://www.w3.org/1999/xlink" width="256" height="256"><path d="M473 71a8 8 0 0 1 8-8h64a8 8 0 0 1 8 8v77.161C722.848 166.622 857.812 301.289 876.729 471H952a8 8 0 0 1 8 8v64a8 8 0 0 1-8 8h-75.053C858.871 721.652 723.515 857.305 553 875.839V951a8 8 0 0 1-8 8h-64a8 8 0 0 1-8-8v-75.161C302.818 857.341 167.659 722.182 149.161 552H72a8 8 0 0 1-8-8v-64a8 8 0 0 1 8-8h77.161C167.659 301.818 302.818 166.659 473 148.161V71z m326 441c0-157.953-128.047-286-286-286S227 354.047 227 512s128.047 286 286 286 286-128.047 286-286z m-286 60c33.137 0 60-26.863 60-60s-26.863-60-60-60-60 26.863-60 60 26.863 60 60 60z" fill="#515151" p-id="22608"></path></svg>