<?xml version="1.0" standalone="no"?><!DOCTYPE svg PUBLIC "-//W3C//DTD SVG 1.1//EN" "http://www.w3.org/Graphics/SVG/1.1/DTD/svg11.dtd"><svg t="1777896369758" class="icon" viewBox="0 0 1024 1024" version="1.1" xmlns="http://www.w3.org/2000/svg" p-id="24434" xmlns:xlink="http://www.w3.org/1999/xlink" width="256" height="256"><path d="M994.42596 29.57404A106.652291 106.652291 0 0 0 915.28996 0.138008a377.335805 377.335805 0 0 0-158.911913 49.913272 521.529702 521.529702 0 0 1 85.321832 56.525714c17.490976-7.252356 78.282781-28.796119 91.507666-15.35793 70.817121 70.603817-257.885239 438.767524-328.915665 509.797951-94.067321 94.067321-364.964139 335.741412-496.359762 335.741411-38.608129 0-17.277671-59.725283-2.772959-95.560452a531.128408 531.128408 0 0 1-56.099105-85.321833C-53.53945 954.676011 24.103418 1024 107.718814 1024c67.404248 0 168.51062-46.07379 282.201961-124.569876a401.865832 401.865832 0 0 0 121.583612 19.197413A406.771837 406.771837 0 0 0 918.489529 512.069004a400.159395 400.159395 0 0 0-19.197413-121.157002c66.764334-95.987062 177.896021-278.789088 95.133844-361.337962z m-451.992409 509.79795a1870.041267 1870.041267 0 0 0 257.245326-314.197648 406.771837 406.771837 0 1 0-575.922371 574.002629 1858.096211 1858.096211 0 0 0 318.677045-259.804981z" fill="#d81e06" p-id="24435"></path></svg>