<?xml version="1.0" standalone="no"?><!DOCTYPE svg PUBLIC "-//W3C//DTD SVG 1.1//EN" "http://www.w3.org/Graphics/SVG/1.1/DTD/svg11.dtd"><svg t="1777896516668" class="icon" viewBox="0 0 1024 1024" version="1.1" xmlns="http://www.w3.org/2000/svg" p-id="29235" xmlns:xlink="http://www.w3.org/1999/xlink" width="256" height="256"><path d="M380.609 531.301c2.21 1.102 4.607 1.654 7.010 1.654 2.404 0 4.802-0.551 7.011-1.654 9.633-4.815 235.917-119.933 235.917-292.874 0-76.972-62.64-139.601-139.631-139.601-39.721 0-77.020 16.771-103.296 45.714-26.273-28.943-63.573-45.714-103.296-45.714-76.99 0-139.63 62.629-139.63 139.601 0 172.943 226.283 288.060 235.915 292.874zM284.323 130.166c36.34 0 70.072 18.119 90.239 48.48 5.807 8.733 20.305 8.733 26.111 0 20.167-30.361 53.901-48.48 90.24-48.48 59.708 0 108.287 48.57 108.287 108.263 0 137.735-174.144 240.601-211.582 261.106-37.436-20.506-211.582-123.371-211.582-261.106 0-59.692 48.579-108.263 108.286-108.263z" fill="#d81e06" p-id="29236"></path><path d="M678.559 390.801h62.046c12.162 0 22.023-9.578 22.023-21.394s-9.86-21.394-22.023-21.394h-62.046c-12.163 0-22.023 9.578-22.023 21.394s9.861 21.394 22.023 21.394z" fill="#d81e06" p-id="29237"></path><path d="M740.606 763.028h-442.778c-12.162 0-22.023 9.578-22.023 21.394s9.86 21.394 22.023 21.394h442.778c12.162 0 22.023-9.578 22.023-21.394s-9.86-21.394-22.023-21.394z" fill="#d81e06" p-id="29238"></path><path d="M740.606 638.926h-298.867c-12.163 0-22.023 9.578-22.023 21.394s9.86 21.394 22.023 21.394h298.868c12.162 0 22.023-9.578 22.023-21.394s-9.861-21.394-22.024-21.394z" fill="#d81e06" p-id="29239"></path><path d="M740.606 490.107h-156.774c-12.163 0-22.023 9.578-22.023 21.394s9.86 21.394 22.023 21.394h156.774c12.162 0 22.023-9.578 22.023-21.394 0-11.816-9.86-21.394-22.023-21.394z" fill="#d81e06" p-id="29240"></path><path d="M856.747 91.476h-148.416c-12.163 0-22.023 9.578-22.023 21.394 0 11.815 9.86 21.394 22.023 21.394h126.392v753.633h-643.080v-343.491c0-11.815-9.86-21.394-22.023-21.394s-22.023 9.578-22.023 21.394v364.882c0 11.815 9.86 21.394 22.023 21.394h670.194c-0.14 0 0.464 0.056 2.405 0.272 1.249 0.137 1.888 0.204 2.737 0.282 5.483 0.496 9.717 0.447 14.62-0.871 10.978-2.953 19.192-12.010 19.192-24.253v-793.241c0-11.815-9.86-21.394-22.022-21.394z" fill="#d81e06" p-id="29241"></path></svg>