<?xml version="1.0" standalone="no"?><!DOCTYPE svg PUBLIC "-//W3C//DTD SVG 1.1//EN" "http://www.w3.org/Graphics/SVG/1.1/DTD/svg11.dtd"><svg t="1777896439263" class="icon" viewBox="0 0 1024 1024" version="1.1" xmlns="http://www.w3.org/2000/svg" p-id="25697" xmlns:xlink="http://www.w3.org/1999/xlink" width="256" height="256"><path d="M1006.812979 492.885333L544.647646 92.16c-18.773333-16.384-46.421333-16.384-65.194667 0L17.287646 492.885333c-20.821333 18.090667-23.210667 49.493333-5.12 70.314667 17.749333 20.821333 49.493333 23.210667 70.314667 5.12L511.879646 195.584l429.738667 372.736c9.216 8.192 21.162667 11.946667 32.426666 11.946667 13.994667 0 27.648-5.802667 37.546667-17.066667 18.090667-20.821333 16.042667-52.224-4.778667-70.314667z m0 0" p-id="25698" fill="#d81e06"></path><path d="M113.884979 566.954667v325.632c0 41.984 34.474667 76.458667 76.458667 76.458666h218.112v-304.469333c0-25.258667 20.821333-46.08 46.08-46.08h114.688c25.258667 0 46.08 20.821333 46.08 46.08v304.469333h218.112c41.984 0 76.458667-34.474667 76.458667-76.458666v-325.632L511.879646 221.525333 113.884979 566.954667z m730.453334-365.909334h-63.146667c-12.629333 0-22.869333 10.24-22.869333 22.869334v23.893333l109.226666 94.549333V223.914667c-0.341333-12.629333-10.581333-22.869333-23.210666-22.869334z m56.661333-112.981333s-34.474667 56.32-88.064 99.328c150.869333 13.994667 126.293333-131.754667 126.293333-131.754667-132.437333-10.24-131.413333 101.034667-129.706666 126.293334 20.821333-20.821333 49.152-61.781333 91.477333-93.866667z m-105.813333 90.453333c-19.456-16.384-39.936-43.008-50.517334-53.248 0 0 32.426667 20.48 55.637334 48.810667 2.389333-18.090667 6.485333-92.16-92.16-84.309333 0.341333 0-13.653333 103.424 87.04 88.746666z m0 0" p-id="25699" fill="#d81e06"></path></svg>