<?xml version="1.0" standalone="no"?><!DOCTYPE svg PUBLIC "-//W3C//DTD SVG 1.1//EN" "http://www.w3.org/Graphics/SVG/1.1/DTD/svg11.dtd"><svg t="1777896478856" class="icon" viewBox="0 0 1024 1024" version="1.1" xmlns="http://www.w3.org/2000/svg" p-id="26946" xmlns:xlink="http://www.w3.org/1999/xlink" width="256" height="256"><path d="M529.664 213.333H896A42.667 42.667 0 0 1 938.667 256v597.333A42.667 42.667 0 0 1 896 896H128a42.667 42.667 0 0 1-42.667-42.667V170.667A42.667 42.667 0 0 1 128 128h316.33l85.334 85.333z m-358.997 0v597.334h682.666v-512H494.336l-85.333-85.334H170.667zM469.333 556.8V384h213.334v85.333h-128v192A106.667 106.667 0 1 1 469.333 556.8z" p-id="26947" fill="#d81e06"></path></svg>