<?xml version="1.0" standalone="no"?><!DOCTYPE svg PUBLIC "-//W3C//DTD SVG 1.1//EN" "http://www.w3.org/Graphics/SVG/1.1/DTD/svg11.dtd"><svg t="1777896456951" class="icon" viewBox="0 0 1024 1024" version="1.1" xmlns="http://www.w3.org/2000/svg" p-id="26722" xmlns:xlink="http://www.w3.org/1999/xlink" width="256" height="256"><path d="M 787.911 734.009 v -175.104 a 14.2222 14.2222 0 0 1 10.4107 -13.7102 l 66.2756 -18.4604 a 14.2222 14.2222 0 1 1 7.65156 27.4204 l -55.8933 15.5591 v 224.142 c 0 0.426667 0 0.853333 -0.056889 1.22311 a 73.9556 73.9556 0 1 1 -28.3876 -61.0702 Z M 540.444 483.556 h 149.333 a 14.2222 14.2222 0 1 1 0 28.4444 H 526.222 a 14.2222 14.2222 0 0 1 -14.2222 -14.2222 v -163.556 a 14.2222 14.2222 0 1 1 28.4444 0 V 483.556 Z m 307.172 -34.0764 a 14.2222 14.2222 0 1 1 -27.9609 5.17689 A 312.974 312.974 0 0 0 512 199.111 C 339.2 199.111 199.111 339.2 199.111 512 s 140.089 312.889 312.889 312.889 c 25.6284 0 50.8587 -3.072 75.2924 -9.10222 a 14.2222 14.2222 0 0 1 6.82667 27.5911 c -26.6809 6.59911 -54.1867 9.95556 -82.1191 9.95555 c -188.501 0 -341.333 -152.832 -341.333 -341.333 S 323.499 170.667 512 170.667 a 341.419 341.419 0 0 1 335.616 278.812 Z M 742.4 837.803 a 45.5111 45.5111 0 1 0 0 -91.0222 a 45.5111 45.5111 0 0 0 0 91.0222 Z" fill="#d81e06" p-id="26723"></path></svg>