<?xml version="1.0" standalone="no"?><!DOCTYPE svg PUBLIC "-//W3C//DTD SVG 1.1//EN" "http://www.w3.org/Graphics/SVG/1.1/DTD/svg11.dtd"><svg t="1777887138548" class="icon" viewBox="0 0 1024 1024" version="1.1" xmlns="http://www.w3.org/2000/svg" p-id="3121" xmlns:xlink="http://www.w3.org/1999/xlink" width="256" height="256"><path d="M164.80191 175.323452v673.353096L585.074798 512 164.80191 175.323452zM143.490027 12.572347L711.486903 467.584244c28.415844 22.771075 28.415844 66.060437 0 88.831512L143.490027 1011.427653C106.293431 1041.225889 51.202534 1014.704435 51.202534 967.011897V56.988103C51.202534 9.295565 106.293431-17.225889 143.490027 12.572347z m702.908134 101.285843v796.28362a56.831687 56.831687 0 0 0 56.806087 56.870087A56.831687 56.831687 0 0 0 959.997536 910.14181V113.85819a56.831687 56.831687 0 0 0-56.806088-56.870087 56.831687 56.831687 0 0 0-56.793287 56.870087z" fill="#ffffff" p-id="3122"></path></svg>