<?xml version="1.0" standalone="no"?><!DOCTYPE svg PUBLIC "-//W3C//DTD SVG 1.1//EN" "http://www.w3.org/Graphics/SVG/1.1/DTD/svg11.dtd"><svg t="1777987111285" class="icon" viewBox="0 0 1024 1024" version="1.1" xmlns="http://www.w3.org/2000/svg" p-id="2886" xmlns:xlink="http://www.w3.org/1999/xlink" width="256" height="256"><path d="M777.2 419.6H356.3V299.8h-0.1c1.3-84.7 70.5-153.2 155.5-153.2S666 215.2 667.2 299.9c-0.1 1.2-0.2 2.5-0.2 3.7 0 22.1 17.9 40 40 40 22 0 39.8-17.7 40-39.7h0.2V302c0-62.9-24.5-122-69-166.5s-103.6-69-166.5-69c-62.9 0-122 24.5-166.5 69-43.9 43.9-68.3 102.2-68.9 164.2v119.8h-30c-46.5 0-84.2 37.8-84.2 84.2v372c0 46.5 37.8 84.2 84.2 84.2h531c46.5 0 84.2-37.8 84.2-84.2v-372c0-46.3-37.8-84.1-84.3-84.1z m4.3 456.2c0 2.3-2 4.2-4.2 4.2h-531c-2.3 0-4.2-2-4.2-4.2v-372c0-2.3 2-4.2 4.2-4.2h531c2.3 0 4.2 2 4.2 4.2v372z" p-id="2887" fill="#e6e6e6"></path></svg>